/vscmnt/brussel_pixiu_data/_data_brussel/112/vsc11236/PredSimResults/SUBJ07_Falisse2022/weightedWalking/worker_05.mot
version=1
nRows=4
nColumns=124
inDegrees=yes
endheader
                time	         pelvis_tilt	         pelvis_list	     pelvis_rotation	           pelvis_tx	           pelvis_ty	           pelvis_tz	       hip_flexion_r	     hip_adduction_r	      hip_rotation_r	        knee_angle_r	       ankle_angle_r	    subtalar_angle_r	         mtp_angle_r	       hip_flexion_l	     hip_adduction_l	      hip_rotation_l	        knee_angle_l	       ankle_angle_l	    subtalar_angle_l	         mtp_angle_l	    lumbar_extension	      lumbar_bending	     lumbar_rotation	          arm_flex_r	           arm_add_r	           arm_rot_r	        elbow_flex_r	          arm_flex_l	           arm_add_l	           arm_rot_l	        elbow_flex_l	glut_med1_r/activation	glut_med2_r/activation	glut_med3_r/activation	glut_min1_r/activation	glut_min2_r/activation	glut_min3_r/activation	semimem_r/activation	semiten_r/activation	bifemlh_r/activation	bifemsh_r/activation	    sar_r/activation	add_long_r/activation	add_brev_r/activation	add_mag1_r/activation	add_mag2_r/activation	add_mag3_r/activation	    tfl_r/activation	   pect_r/activation	   grac_r/activation	glut_max1_r/activation	glut_max2_r/activation	glut_max3_r/activation	iliacus_r/activation	  psoas_r/activation	quad_fem_r/activation	    gem_r/activation	   peri_r/activation	rect_fem_r/activation	vas_med_r/activation	vas_int_r/activation	vas_lat_r/activation	med_gas_r/activation	lat_gas_r/activation	 soleus_r/activation	tib_post_r/activation	flex_dig_r/activation	flex_hal_r/activation	tib_ant_r/activation	per_brev_r/activation	per_long_r/activation	per_tert_r/activation	ext_dig_r/activation	ext_hal_r/activation	glut_med1_l/activation	glut_med2_l/activation	glut_med3_l/activation	glut_min1_l/activation	glut_min2_l/activation	glut_min3_l/activation	semimem_l/activation	semiten_l/activation	bifemlh_l/activation	bifemsh_l/activation	    sar_l/activation	add_long_l/activation	add_brev_l/activation	add_mag1_l/activation	add_mag2_l/activation	add_mag3_l/activation	    tfl_l/activation	   pect_l/activation	   grac_l/activation	glut_max1_l/activation	glut_max2_l/activation	glut_max3_l/activation	iliacus_l/activation	  psoas_l/activation	quad_fem_l/activation	    gem_l/activation	   peri_l/activation	rect_fem_l/activation	vas_med_l/activation	vas_int_l/activation	vas_lat_l/activation	med_gas_l/activation	lat_gas_l/activation	 soleus_l/activation	tib_post_l/activation	flex_dig_l/activation	flex_hal_l/activation	tib_ant_l/activation	per_brev_l/activation	per_long_l/activation	per_tert_l/activation	ext_dig_l/activation	ext_hal_l/activation	 ercspn_r/activation	 ercspn_l/activation	 intobl_r/activation	 intobl_l/activation	 extobl_r/activation	 extobl_l/activation	
          1.19474490	         -9.07750686	         -2.16991739	          3.47995380	          1.35006174	          0.84298073	         -0.00540762	         35.39201102	          3.18684061	          1.25431918	         -8.57284601	         12.93202939	         -7.65969938	          0.23690958	        -11.89098986	          0.37013319	          9.79027039	         -5.90837274	          4.07882250	         -2.89892429	         31.29822082	         -2.15302890	          0.29339385	         -2.24804038	        -16.41171040	        -13.67834024	         16.33790061	         11.69990087	         23.29861573	        -13.46957678	         19.36628660	         79.42283972	          0.01618516	          0.01000008	          0.01000013	          0.01198962	          0.01000031	          0.01000015	          0.13142530	          0.03858575	          0.03976438	          0.01000013	          0.01368935	          0.03725554	          0.21198323	          0.22497662	          0.14603586	          0.07724525	          0.01000140	          0.01752388	          0.08627794	          0.01863678	          0.01000019	          0.06470447	          0.02013610	          0.01885092	          0.19110991	          0.01589070	          0.01638128	          0.01724223	          0.12127285	          0.11926652	          0.09792484	          0.01000001	          0.01000003	          0.01000002	          0.01877630	          0.01514900	          0.01638765	          0.31455285	          0.22825094	          0.19125484	          0.09751082	          0.40586944	          0.17397021	          0.09757453	          0.08485385	          0.08146574	          0.13842955	          0.12977376	          0.11819949	          0.01023131	          0.01000026	          0.01000024	          0.03441729	          0.07387000	          0.10441744	          0.01000061	          0.05314784	          0.01006775	          0.01000050	          0.21687467	          0.01000295	          0.02451040	          0.02070233	          0.02067501	          0.02067495	          0.24912077	          0.37356793	          0.02479249	          0.02479229	          0.11702600	          0.09334170	          0.01002202	          0.01135887	          0.01199061	          0.25401154	          0.33739728	          0.32691511	          0.29741138	          0.36908138	          0.37031948	          0.01000003	          0.01000003	          0.01000001	          0.01000007	          0.01000002	          0.01000017	          0.04362974	          0.02213318	          0.02892518	          0.01724218	          0.07132725	          0.01000002	
          1.20669235	         -9.06513597	         -2.41054049	          3.79127812	          1.36685775	          0.84132024	         -0.00514147	         34.76002138	          3.52691368	          1.51393145	         -9.33233198	         12.13999814	         -8.06698766	          0.22111081	        -11.76078346	          0.11634546	          9.37196520	         -8.22757605	          3.88440616	         -2.31006595	         32.62174785	         -2.03654215	          0.79564828	         -2.29562802	        -17.77513496	        -13.70113150	         16.23440400	         11.48044462	         22.92480000	        -13.49001253	         19.32014274	         82.08262461	          0.11554416	          0.01000008	          0.01000012	          0.01000014	          0.01000013	          0.12274013	          0.10960109	          0.03217844	          0.05187730	          0.01000032	          0.01141745	          0.03106901	          0.17678175	          0.18761748	          0.12178549	          0.06600405	          0.01000024	          0.01461473	          0.07195141	          0.10819868	          0.01043767	          0.06235062	          0.01679236	          0.01572059	          0.25383677	          0.02473437	          0.15927410	          0.01437903	          0.10113454	          0.09946137	          0.08166365	          0.01724217	          0.01724213	          0.01688813	          0.01565835	          0.01263342	          0.01366639	          0.36096814	          0.27662142	          0.15949549	          0.14160768	          0.49269824	          0.14508112	          0.13860564	          0.07076319	          0.06793771	          0.11544240	          0.10822383	          0.09857153	          0.01000090	          0.01029837	          0.01199272	          0.02870203	          0.06160333	          0.10848025	          0.07115654	          0.04432317	          0.01007072	          0.01000210	          0.18086092	          0.01438231	          0.02044039	          0.01726468	          0.01724190	          0.01724183	          0.20775228	          0.31153400	          0.02067551	          0.02067538	          0.09759291	          0.07784157	          0.01000009	          0.01000009	          0.01000008	          0.21183090	          0.28136978	          0.31391713	          0.26296216	          0.30832248	          0.32441338	          0.01000003	          0.01000004	          0.01000003	          0.01000007	          0.01000002	          0.01000017	          0.03638468	          0.03634844	          0.02412193	          0.01437898	          0.05948279	          0.01000008	
          1.21863980	         -9.05028204	         -2.64384267	          4.08150194	          1.38373673	          0.83970793	         -0.00484702	         34.01922962	          3.84093712	          1.78809745	         -9.96515596	         11.40642637	         -8.47671015	          0.22082368	        -11.48054844	         -0.12818111	          8.93929455	        -10.81131529	          3.59735218	         -1.72840270	         33.73314654	         -1.92133409	          1.29663066	         -2.33288645	        -19.03477586	        -13.71201195	         16.29511004	         11.25853308	         22.44739028	        -13.51131030	         19.25615959	         84.56958660	          0.19691018	          0.21044664	          0.24348574	          0.09942389	          0.15132186	          0.10236075	          0.09140096	          0.06528109	          0.04505461	          0.03319330	          0.01003382	          0.02590978	          0.14742575	          0.15646217	          0.10156218	          0.07391481	          0.01000031	          0.01218824	          0.09044655	          0.16945058	          0.09587536	          0.06563825	          0.01400386	          0.01311007	          0.21168535	          0.02062752	          0.13282757	          0.01199128	          0.08434036	          0.08294504	          0.06810276	          0.01437897	          0.01437895	          0.01408372	          0.01305816	          0.01053556	          0.01139700	          0.46107718	          0.32341185	          0.18199452	          0.42937336	          0.53401636	          0.29620685	          0.15290571	          0.05901241	          0.05665611	          0.13870533	          0.09025243	          0.08220296	          0.02097344	          0.01000050	          0.01000141	          0.02393584	          0.05137363	          0.09046833	          0.10808472	          0.03696383	          0.01009404	          0.03761885	          0.15082757	          0.01199466	          0.01704619	          0.01439785	          0.01437886	          0.01437880	          0.17325336	          0.25980131	          0.01724218	          0.01724211	          0.08138683	          0.06491536	          0.01095507	          0.01222410	          0.01116288	          0.17665469	          0.23464609	          0.28700980	          0.24519298	          0.28272855	          0.29368874	          0.01000002	          0.01000027	          0.01000031	          0.01000013	          0.01000003	          0.01000014	          0.07090627	          0.05350066	          0.02011632	          0.01199124	          0.04960520	          0.01000000	
          1.23058725	         -9.03471213	         -2.86347726	          4.35084666	          1.40046675	          0.83833206	         -0.00450469	         33.26046218	          4.15510821	          2.05894031	        -10.53291761	         10.60073985	         -8.88018477	          0.21426282	        -11.01894202	         -0.36256710	          8.50486810	        -13.66714449	          3.20190451	         -1.13960600	         34.48083533	         -1.82093717	          1.78774087	         -2.36133640	        -20.12753181	        -13.70011076	         16.49427971	         10.99962255	         21.90830644	        -13.52878992	         19.19147863	         86.79108348	          0.26799518	          0.30253276	          0.33518881	          0.08994424	          0.12620802	          0.19327120	          0.07622311	          0.06254776	          0.04415785	          0.02768130	          0.01000012	          0.02160728	          0.12294456	          0.13048068	          0.11771240	          0.09676236	          0.01000016	          0.01016497	          0.07542813	          0.21981896	          0.14414586	          0.10344827	          0.01167842	          0.01093305	          0.17670958	          0.01720245	          0.12505052	          0.01000006	          0.10570071	          0.10544046	          0.09139302	          0.01199123	          0.01199122	          0.01174501	          0.01088975	          0.01000009	          0.01000009	          0.52561859	          0.32376791	          0.17321290	          0.47583061	          0.56620303	          0.32220108	          0.12751494	          0.04921293	          0.04724791	          0.16231771	          0.07526533	          0.06855251	          0.03473222	          0.01437708	          0.01199387	          0.01996111	          0.04284265	          0.07544624	          0.19018288	          0.03082783	          0.04029566	          0.04274741	          0.12578150	          0.01000315	          0.01421562	          0.01200709	          0.01199131	          0.01199129	          0.14448327	          0.21665924	          0.01437899	          0.01437896	          0.06787190	          0.05413565	          0.02177701	          0.02122251	          0.01454738	          0.14731976	          0.19568123	          0.25824233	          0.22569875	          0.26094285	          0.27429562	          0.01000028	          0.01000011	          0.01000008	          0.01000034	          0.01000015	          0.01000111	          0.08767561	          0.07975737	          0.01677585	          0.01000001	          0.04136787	          0.01000000	
